<?xml version="1.0" encoding="UTF-8"?>
<svg width="28px" height="19px" viewBox="0 0 28 19" version="1.1" xmlns="http://www.w3.org/2000/svg" xmlns:xlink="http://www.w3.org/1999/xlink">
    <!-- Generator: Sketch 52.6 (67491) - http://www.bohemiancoding.com/sketch -->
    <title>Mail</title>
    <desc>Created with Sketch.</desc>
    <g id="Page-1" stroke="none" stroke-width="1" fill="none" fill-rule="evenodd">
        <g id="Index" transform="translate(-1023.000000, -7756.000000)" fill="#FF6800">
            <g id="Footer" transform="translate(0.000000, 7516.000000)">
                <g id="Group-12" transform="translate(1023.333333, 141.000000)">
                    <g id="Mail" transform="translate(0.000000, 99.000000)">
                        <g id="close-envelope">
                            <path d="M13.5,13.3 L10.1597143,10.4196 L0.609428571,18.4851 C0.956571429,18.8024 1.42521429,19 1.94207143,19 L25.0579286,19 C25.5728571,19 26.0395714,18.8024 26.3847857,18.4851 L16.8402857,10.4196 L13.5,13.3 Z" id="Path" fill-rule="nonzero"></path>
                            <path d="M26.3905714,0.5149 C26.0434286,0.1957 25.5767143,0 25.0579286,0 L1.94207143,0 C1.42714286,0 0.960428571,0.1976 0.613285714,0.5187 L13.5,11.4 L26.3905714,0.5149 Z" id="Path" fill-rule="nonzero"></path>
                            <polygon id="Path" fill-rule="nonzero" points="0 1.6682 0 17.4534 9.32078571 9.6501"></polygon>
                            <polygon id="Path" fill-rule="nonzero" points="17.6792143 9.6501 27 17.4534 27 1.6625"></polygon>
                        </g>
                    </g>
                </g>
            </g>
        </g>
    </g>
</svg>