<?xml version="1.0" encoding="UTF-8"?>
<svg width="126px" height="200px" viewBox="0 0 126 200" version="1.1" xmlns="http://www.w3.org/2000/svg" xmlns:xlink="http://www.w3.org/1999/xlink">
    <!-- Generator: Sketch 52.6 (67491) - http://www.bohemiancoding.com/sketch -->
    <title>Mayday Logo White</title>
    <desc>Created with Sketch.</desc>
    <g id="Page-1" stroke="none" stroke-width="1" fill="none" fill-rule="evenodd">
        <g id="Index" transform="translate(-200.000000, -7617.000000)">
            <g id="Footer" transform="translate(0.000000, 7516.000000)">
                <g id="Mayday-Logo-White" transform="translate(200.000000, 101.000000)">
                    <path d="M113.952017,178 L113.952017,168.661568 L105.233658,156 L108.826147,156 L113.294854,162.646272 C114.12726,163.866157 114.915855,165.128107 115.616829,166.347992 C116.317803,165.212237 117.150209,163.908222 118.114047,162.478011 L122.495132,156 L126,156 L116.974965,168.661568 L116.974965,177.957935 L113.952017,177.957935 L113.952017,178 Z M92.9228095,168.956023 L100.633519,168.956023 L98.267733,162.856597 C97.5667594,161.005736 97.0410292,159.491396 96.6467316,158.271511 C96.3400556,159.701721 95.9019471,161.131931 95.4200278,162.520076 L92.9228095,168.956023 Z M86.394993,178 L95.069541,156 L98.3553547,156 L107.555633,178 L104.182197,178 L101.553547,171.353728 L92.0465925,171.353728 L89.593185,178 L86.394993,178 Z M69.0897079,175.391969 L73.9089013,175.391969 C75.3984701,175.391969 76.581363,175.265774 77.4137691,174.971319 C78.2461752,174.718929 78.9471488,174.340344 79.4290682,173.835564 C80.1300417,173.162524 80.6995828,172.195029 81.0938804,171.059273 C81.488178,169.881453 81.7072323,168.493308 81.7072323,166.810707 C81.7072323,164.497132 81.3129346,162.730402 80.5243394,161.510516 C79.7357441,160.290631 78.8157163,159.449331 77.7204451,159.028681 C76.9318498,158.734226 75.6175243,158.565966 73.8650904,158.565966 L69.1335188,158.565966 L69.1335188,175.391969 L69.0897079,175.391969 Z M66.1105702,178 L66.1105702,156 L73.9089013,156 C75.6613352,156 77.0194715,156.08413 77.9394993,156.294455 C79.2538248,156.58891 80.349096,157.09369 81.2691238,157.85086 C82.4520167,158.818356 83.3720445,160.080306 83.9415855,161.594646 C84.5549374,163.108987 84.8178025,164.875717 84.8178025,166.810707 C84.8178025,168.493308 84.5987483,169.965583 84.2044506,171.227533 C83.810153,172.531549 83.2844228,173.583174 82.6710709,174.424474 C82.0577191,175.265774 81.3567455,175.938815 80.6119611,176.40153 C79.8671766,176.90631 78.9909597,177.24283 77.9394993,177.49522 C76.8880389,177.74761 75.6613352,177.873805 74.3031989,177.873805 L66.1105702,177.873805 L66.1105702,178 Z M51.433936,178 L51.433936,168.661568 L42.7155772,156 L46.3080668,156 L50.7767733,162.646272 C51.6091794,163.866157 52.3977747,165.128107 53.0987483,166.347992 C53.7997218,165.212237 54.632128,163.908222 55.5959666,162.478011 L59.9770515,156 L63.4819193,156 L54.4130737,168.661568 L54.4130737,177.957935 L51.433936,177.957935 L51.433936,178 Z M30.4047288,168.956023 L38.1154381,168.956023 L35.7496523,162.856597 C35.0486787,161.005736 34.5229485,159.491396 34.1286509,158.271511 C33.821975,159.701721 33.3838665,161.131931 32.9019471,162.520076 L30.4047288,168.956023 Z M23.8769124,178 L32.5514604,156 L35.837274,156 L45.0375522,178 L41.620306,178 L38.9916551,171.353728 L29.484701,171.353728 L27.0751043,178 L23.8769124,178 Z M0,178 L0,156 L4.46870654,156 L10.9089013,168.198853 L17.5681502,156 L21.5549374,156 L21.5549374,178 L18.6634214,178 L18.6634214,159.617591 L12.0479833,171.395793 L9.37552156,171.395793 L2.84770515,159.281071 L2.84770515,178 L0,178 Z" id="Shape" fill="#FFFFFF" fill-rule="nonzero"></path>
                    <path d="M119.46359,199.788136 L119.46359,191.228814 L116.192141,191.228814 L116.192141,190.084746 L124,190.084746 L124,191.228814 L120.728551,191.228814 L120.728551,199.788136 L119.46359,199.788136 Z M104.763879,199.788136 L104.763879,190.084746 L106.116078,190.084746 L111.306777,197.711864 L111.306777,190.084746 L112.571738,190.084746 L112.571738,199.788136 L111.219539,199.788136 L106.028839,192.161017 L106.028839,199.788136 L104.763879,199.788136 Z M93.4228551,199.788136 L93.4228551,190.084746 L100.532805,190.084746 L100.532805,191.228814 L94.7314348,191.228814 L94.7314348,194.194915 L100.18385,194.194915 L100.18385,195.338983 L94.7314348,195.338983 L94.7314348,198.644068 L100.750901,198.644068 L100.750901,199.788136 L93.4228551,199.788136 Z M79.6827686,199.788136 L79.6827686,190.084746 L81.6456381,190.084746 L84.3064167,196.016949 L87.3597693,190.084746 L89.1045422,190.084746 L89.1045422,199.788136 L87.8395818,199.788136 L87.8395818,191.694915 L84.8298486,197.415254 L83.6521269,197.415254 L80.9477289,191.525424 L80.9477289,199.788136 L79.6827686,199.788136 Z M71.5695746,199.788136 L71.5695746,191.228814 L68.2981255,191.228814 L68.2981255,190.084746 L76.1059841,190.084746 L76.1059841,191.228814 L72.834535,191.228814 L72.834535,199.788136 L71.5695746,199.788136 Z M63.2382841,199.788136 L63.2382841,190.084746 L64.5468637,190.084746 L64.5468637,199.788136 L63.2382841,199.788136 Z M57.3060562,190.084746 L58.6146359,190.084746 L58.6146359,195.677966 C58.6146359,196.652542 58.4837779,197.415254 58.2656813,198.008475 C58.0475847,198.559322 57.6550108,199.067797 57.0443403,199.40678 C56.4772891,199.745763 55.6921413,199.957627 54.7325162,199.957627 C53.8165105,199.957627 53.074982,199.788136 52.4643115,199.491525 C51.8972603,199.194915 51.4610671,198.728814 51.1993511,198.135593 C50.9376352,197.542373 50.8067772,196.737288 50.8067772,195.720339 L50.8067772,190.127119 L52.1153569,190.127119 L52.1153569,195.720339 C52.1153569,196.567797 52.2025955,197.20339 52.3334535,197.584746 C52.5079308,197.966102 52.7696467,198.305085 53.1622206,198.516949 C53.5547945,198.728814 54.0346071,198.855932 54.5580389,198.855932 C55.517664,198.855932 56.2155732,198.644068 56.6081471,198.220339 C57.000721,197.79661 57.2188176,196.949153 57.2188176,195.762712 L57.2188176,190.084746 L57.3060562,190.084746 Z M40.0328046,194.364407 L42.8244412,194.364407 C43.4351118,194.364407 43.871305,194.322034 44.2202596,194.194915 C44.5692141,194.067797 44.8309301,193.898305 44.961788,193.601695 C45.1362653,193.347458 45.223504,193.050847 45.223504,192.711864 C45.223504,192.245763 45.0490267,191.864407 44.7000721,191.567797 C44.3511175,191.271186 43.8276857,191.144068 43.0861572,191.144068 L39.9891853,191.144068 L39.9891853,194.364407 L40.0328046,194.364407 Z M38.7242249,199.788136 L38.7242249,190.084746 L43.0861572,190.084746 C43.9585436,190.084746 44.6128335,190.169492 45.092646,190.338983 C45.5288392,190.508475 45.9214131,190.805085 46.1831291,191.271186 C46.444845,191.694915 46.575703,192.20339 46.575703,192.754237 C46.575703,193.432203 46.3576063,194.025424 45.8777938,194.491525 C45.4416006,194.957627 44.7436914,195.254237 43.7840663,195.381356 C44.1330209,195.550847 44.3947368,195.720339 44.5692141,195.847458 C44.961788,196.186441 45.3107426,196.610169 45.6596972,197.161017 L47.3608508,199.788136 L45.7905552,199.788136 L44.4819755,197.754237 C44.0894016,197.161017 43.7840663,196.737288 43.5223504,196.398305 C43.2606345,196.101695 43.0425379,195.889831 42.8680606,195.762712 C42.6935833,195.635593 42.4754867,195.550847 42.2573901,195.508475 C42.1265321,195.466102 41.8648161,195.466102 41.5158616,195.466102 L39.9891853,195.466102 L39.9891853,199.788136 L38.7242249,199.788136 Z M33.5771449,196.398305 L34.8857246,196.737288 C34.6240087,197.79661 34.1005768,198.601695 33.4026676,199.152542 C32.7047585,199.70339 31.832372,200 30.7855083,200 C29.7386446,200 28.8662581,199.788136 28.2119683,199.364407 C27.5576784,198.940678 27.0342466,198.305085 26.685292,197.5 C26.3363374,196.694915 26.1618601,195.805085 26.1618601,194.915254 C26.1618601,193.898305 26.3363374,193.008475 26.7289113,192.288136 C27.1214852,191.525424 27.6885364,190.974576 28.3864456,190.59322 C29.127974,190.211864 29.9131218,190 30.7855083,190 C31.7887527,190 32.6175198,190.254237 33.2718097,190.762712 C33.9260995,191.271186 34.405912,191.949153 34.667628,192.838983 L33.4026676,193.135593 C33.184571,192.415254 32.8356164,191.90678 32.3994232,191.610169 C31.96323,191.271186 31.4397981,191.144068 30.741889,191.144068 C30.0003605,191.144068 29.3460707,191.313559 28.8662581,191.694915 C28.3428262,192.033898 27.9938717,192.542373 27.7757751,193.135593 C27.5576784,193.728814 27.4704398,194.364407 27.4704398,195 C27.4704398,195.805085 27.6012978,196.525424 27.8193944,197.161017 C28.0811103,197.79661 28.4300649,198.220339 28.9534968,198.559322 C29.4769286,198.855932 30.0439798,199.025424 30.611031,199.025424 C31.3525595,199.025424 31.96323,198.813559 32.4430425,198.389831 C33.053713,197.838983 33.4026676,197.20339 33.5771449,196.398305 Z M15.1697909,199.788136 L15.1697909,190.084746 L22.2797404,190.084746 L22.2797404,191.228814 L16.4783706,191.228814 L16.4783706,194.194915 L21.9307859,194.194915 L21.9307859,195.338983 L16.4783706,195.338983 L16.4783706,198.644068 L22.5414564,198.644068 L22.5414564,199.788136 L15.1697909,199.788136 Z M4.30857967,194.364407 L7.10021629,194.364407 C7.71088681,194.364407 8.14708003,194.322034 8.49603461,194.194915 C8.84498919,194.067797 9.10670512,193.898305 9.23756309,193.601695 C9.41204037,193.347458 9.49927902,193.050847 9.49927902,192.711864 C9.49927902,192.245763 9.32480173,191.864407 8.97584715,191.567797 C8.62689257,191.271186 8.10346071,191.144068 7.36193223,191.144068 L4.26496035,191.144068 L4.26496035,194.364407 L4.30857967,194.364407 Z M3,199.788136 L3,190.084746 L7.36193223,190.084746 C8.23431867,190.084746 8.88860851,190.169492 9.36842105,190.338983 C9.80461428,190.508475 10.1971882,190.805085 10.4589041,191.271186 C10.72062,191.694915 10.851478,192.20339 10.851478,192.754237 C10.851478,193.432203 10.6333814,194.025424 10.1535689,194.491525 C9.71737563,194.957627 9.01946647,195.254237 8.05984138,195.381356 C8.40879596,195.550847 8.6705119,195.720339 8.84498919,195.847458 C9.23756309,196.186441 9.58651766,196.610169 9.93547224,197.161017 L11.6366258,199.788136 L10.0227109,199.788136 L8.71413122,197.754237 C8.32155732,197.161017 8.01622206,196.737288 7.75450613,196.398305 C7.49279019,196.101695 7.27469358,195.889831 7.10021629,195.762712 C6.92573901,195.635593 6.70764239,195.550847 6.48954578,195.508475 C6.35868782,195.466102 6.09697188,195.466102 5.7480173,195.466102 L4.22134102,195.466102 L4.22134102,199.788136 L3,199.788136 Z" id="Shape" fill="#FFFFFF" fill-rule="nonzero"></path>
                    <polygon id="Path" fill="#FFFFFF" points="43 84 43 40 51.2926829 40 63.2217295 64.40625 75.594235 40 83 40 83 84 77.6784922 84 77.6784922 47.1757812 65.4390244 70.765625 60.4279379 70.765625 48.3215078 46.53125 48.3215078 84"></polygon>
                    <path d="M63.5,0 C98.0070423,0 126,27.5599859 126,61.5 C126,95.4834157 98.0070423,123 63.5,123 C28.9929577,123 1,95.4400141 1,61.5 C1,27.5165843 28.9929577,0 63.5,0 Z M63.5,4.90437544 C95.278169,4.90437544 121.026408,30.2508821 121.026408,61.5 C121.026408,92.7491179 95.278169,118.095625 63.5,118.095625 C31.721831,118.095625 5.97359155,92.7491179 5.97359155,61.5 C5.97359155,30.2508821 31.721831,4.90437544 63.5,4.90437544 Z" id="Shape" fill="#FF6800"></path>
                </g>
            </g>
        </g>
    </g>
</svg>