<?xml version="1.0" encoding="UTF-8"?>
<svg width="52px" height="62px" viewBox="0 0 52 62" version="1.1" xmlns="http://www.w3.org/2000/svg" xmlns:xlink="http://www.w3.org/1999/xlink">
    <!-- Generator: Sketch 52.6 (67491) - http://www.bohemiancoding.com/sketch -->
    <title>light-bulb</title>
    <desc>Created with Sketch.</desc>
    <g id="Page-1" stroke="none" stroke-width="1" fill="none" fill-rule="evenodd">
        <g id="Index" transform="translate(-1499.000000, -4871.000000)" fill="#FFFFFF">
            <g id="About" transform="translate(0.000000, 4341.000000)">
                <g id="Group-7-Copy-2" transform="translate(1441.000000, 498.000000)">
                    <g id="light-bulb" transform="translate(58.000000, 32.000000)">
                        <path d="M38.7564972,35.2787359 C40.878443,32.5220635 42,29.2317068 42,25.7632308 C42,21.5105987 40.3070658,17.5240677 37.2330068,14.5379421 C34.1594949,11.5524901 30.0858677,9.94025436 25.7688102,10.0016934 C21.5852291,10.0600335 17.6437106,11.7139023 14.670306,14.6586644 C11.6970381,17.6032918 10.0387038,21.495239 10.0006849,25.6173131 C9.96813637,29.1511354 11.0962577,32.5006407 13.2630604,35.3039313 C16.7806273,39.8547314 18.7179491,45.4291111 18.7179491,51.0002572 L18.7179491,57.096195 C18.7179491,59.8001862 20.9508061,62 23.6954137,62 L28.325238,62 C31.0698455,62 33.3027026,59.8000514 33.3027026,57.096195 L33.3027026,51.0006614 C33.3028393,45.3679415 35.175064,39.9312607 38.7564972,35.2787359 Z M14.895137,34.0795969 C13.0067748,31.6365869 12.0236175,28.7167507 12.0519266,25.6357718 C12.1201691,18.2341197 18.2864758,12.1272684 25.797803,12.0225795 C29.5659116,11.9727277 33.1134287,13.3746425 35.7926657,15.9773131 C38.4727232,18.5805227 39.9486216,22.0560049 39.9486216,25.7633656 C39.9486216,28.7870822 38.9712082,31.6551803 37.1219589,34.0576351 C33.3483799,38.9599581 31.316558,44.6791776 31.2334088,50.6205747 L20.7664556,50.6205747 C20.680708,44.7368441 18.6033454,38.8769615 14.895137,34.0795969 Z M20.7693275,56.4113384 L20.7693275,55.5932292 L31.2514609,56.7763348 L31.2514609,57.096195 C31.2514609,57.2646134 31.2336823,57.4287203 31.20551,57.5891894 L20.7693275,56.4113384 Z M20.7693275,53.5590043 L20.7693275,52.6415956 L31.2514609,52.6415956 L31.2514609,54.7421099 L20.7693275,53.5590043 Z M23.6954137,59.9791139 C22.5935499,59.9791139 21.6328211,59.3755023 21.1337891,58.4866573 L29.9638791,59.4832901 C29.496028,59.7960094 28.9320357,59.9789791 28.3253747,59.9789791 L23.6954137,59.9789791 L23.6954137,59.9791139 Z" id="Shape" fill-rule="nonzero"></path>
                        <path d="M15.9895615,26.7772419 C15.9160363,26.2196994 15.8809704,25.6469577 15.8856207,25.0750683 C15.8903967,24.4867011 15.4722456,24.005439 14.9516619,24.0000411 C14.4345973,23.9949274 14.0052603,24.4672404 14.0004843,25.0556075 C13.9949542,25.7388634 14.036807,26.4238239 14.1249116,27.0915964 C14.1946663,27.6203029 14.5968555,28 15.0561054,28 C15.1023572,28 15.1492373,27.9961647 15.1963689,27.9882099 C15.7111711,27.9012759 16.0663545,27.3592168 15.9895615,26.7772419 Z" id="Path"></path>
                        <path d="M21.9717422,42 C22.0780848,42 22.1863458,41.9833007 22.2929624,41.9483965 C22.8322121,41.7712748 23.1256133,41.1910436 22.9482844,40.6525606 C21.8092136,37.1926638 20.1115706,33.9691574 17.9024968,31.0718342 C17.5374241,30.5928937 17.2138742,30.0827447 16.9410289,29.555349 C16.6803802,29.0516333 16.0602773,28.8545272 15.5559726,29.1148715 C15.0518049,29.3752159 14.8543313,29.9945945 15.1149801,30.4983101 C15.442504,31.1309661 15.8300512,31.7424057 16.2672066,32.3157929 C18.3373225,35.0309297 19.928212,38.0515811 20.9956112,41.2938399 C21.137858,41.7259677 21.5397943,42 21.9717422,42 Z" id="Path"></path>
                        <path d="M36.456956,29.076237 C36.0014497,28.872697 35.4730193,29.0907667 35.2768786,29.5631681 C34.9923668,30.2484233 34.624154,30.9020113 34.182538,31.5058008 C33.8828187,31.9156128 33.9602931,32.4999053 34.3554484,32.8107414 C34.5177015,32.938404 34.708334,33 34.8974098,33 C35.1688695,33 35.4370961,32.8729583 35.6137186,32.6312934 C36.1428674,31.9076649 36.5844833,31.1233097 36.9264723,30.3000844 C37.1227327,29.827683 36.912582,29.2796527 36.456956,29.076237 Z" id="Path"></path>
                        <path d="M26.0000615,14.9957804 C31.5140009,14.9957804 35.9998769,19.4720496 35.9998769,24.9740168 C35.9998769,25.2868221 35.985476,25.6020224 35.9570743,25.9108361 C35.9066712,26.4596757 36.3114961,26.9453156 36.8615299,26.9957423 C36.8925985,26.9985364 36.9234004,27 36.954069,27 C37.4651671,27 37.9011939,26.6110889 37.9487968,26.0932505 C37.9826656,25.7240311 38,25.3474939 38,24.9740168 C38,18.3715763 32.6168687,13 26.0000615,13 C25.4477609,13 25,13.4467887 25,13.9978902 C25,14.5489917 25.4477609,14.9957804 26.0000615,14.9957804 Z" id="Path"></path>
                        <path d="M26,8 C26.5522667,8 27,7.52870175 27,6.94736842 L27,1.05263158 C27,0.471298246 26.5522667,0 26,0 C25.4477333,0 25,0.471298246 25,1.05263158 L25,6.94736842 C25,7.52870175 25.4477333,8 26,8 Z" id="Path"></path>
                        <path d="M16.0556008,9.48865917 C16.2486962,9.81669685 16.5987685,10 16.9588429,10 C17.135546,10 17.3147497,9.9558437 17.4788113,9.86289742 C17.9771086,9.58065146 18.1479773,8.95551276 17.860279,8.46665893 L14.9443992,3.51134108 C14.656562,3.02235097 14.019486,2.85485687 13.5211887,3.13710283 C13.0228914,3.4193488 12.8520227,4.04448749 13.139721,4.53334132 L16.0556008,9.48865917 Z" id="Path"></path>
                        <path d="M48.4886865,37.0556183 L43.5333478,34.1398097 C43.0443556,33.8519795 42.4192143,34.0228439 42.1371034,34.521268 C41.8548563,35.0195531 42.0223511,35.6567525 42.5113432,35.9444437 L47.466682,38.8602523 C47.6276351,38.9549918 47.803307,39 47.9767984,39 C48.3300502,39 48.6736258,38.8130215 48.8629263,38.478794 C49.1451735,37.9805088 48.9775424,37.3433095 48.4886865,37.0556183 Z" id="Path"></path>
                        <path d="M3.51134106,13.9444437 L8.46665874,16.8602523 C8.62761116,16.9549918 8.80328235,17 8.97677298,17 C9.33002335,17 9.6735975,16.8130215 9.86289717,16.478794 C10.1451431,15.9805088 9.97764903,15.3433095 9.48865894,15.0556183 L4.53334126,12.1398097 C4.04448745,11.8519795 3.41934878,12.0228439 3.13710283,12.521268 C2.85485687,13.0195531 3.02235097,13.6566136 3.51134106,13.9444437 Z" id="Path"></path>
                        <path d="M50.9473684,25 L45.0526316,25 C44.4712982,25 44,25.4477333 44,26 C44,26.5522667 44.4712982,27 45.0526316,27 L50.9473684,27 C51.5287018,27 52,26.5522667 52,26 C52,25.4477333 51.5288421,25 50.9473684,25 Z" id="Path"></path>
                        <path d="M8,26 C8,25.4477333 7.52870175,25 6.94736842,25 L1.05263158,25 C0.471298246,25 2.27373675e-13,25.4477333 2.27373675e-13,26 C2.27373675e-13,26.5522667 0.471298246,27 1.05263158,27 L6.94736842,27 C7.52884211,27 8,26.5522667 8,26 Z" id="Path"></path>
                        <path d="M43.023206,17 C43.1965618,17 43.3723708,16.954991 43.5333246,16.8602498 L48.4886843,13.9443875 C48.9775423,13.6566909 49.1451741,13.0194799 48.8629257,12.5211855 C48.5806774,12.0228912 47.9553971,11.8520236 47.4666754,12.1397202 L42.5113157,15.0555825 C42.0224577,15.343279 41.8548259,15.9804901 42.1370743,16.4787844 C42.3263756,16.8130181 42.6700889,17 43.023206,17 Z" id="Path"></path>
                        <path d="M8.46667544,34.1397496 L3.51131568,37.0555942 C3.02245772,37.3432891 2.85482591,37.9804963 3.13707427,38.4787876 C3.32637555,38.8130192 3.66995261,39 4.02320598,39 C4.1965618,39 4.37237077,38.9549913 4.53332456,38.8602506 L9.48868432,35.944406 C9.97754228,35.6567112 10.1451741,35.019504 9.86292573,34.5212127 C9.58081367,34.0227825 8.95526083,33.8520548 8.46667544,34.1397496 Z" id="Path"></path>
                        <path d="M35.5211887,9.86289742 C35.6852503,9.9558437 35.8643151,10 36.0411571,10 C36.4012315,10 36.7514427,9.81656057 36.9443992,9.48865917 L39.860279,4.53334132 C40.1479773,4.04448749 39.9771086,3.4193488 39.4788113,3.13710283 C38.9806529,2.85485687 38.3432991,3.02235097 38.0556008,3.51134108 L35.139721,8.46665893 C34.8520227,8.95551276 35.0228914,9.58065146 35.5211887,9.86289742 Z" id="Path"></path>
                    </g>
                </g>
            </g>
        </g>
    </g>
</svg>