<?xml version="1.0" encoding="UTF-8"?>
<svg width="56px" height="56px" viewBox="0 0 56 56" version="1.1" xmlns="http://www.w3.org/2000/svg" xmlns:xlink="http://www.w3.org/1999/xlink">
    <!-- Generator: Sketch 52.6 (67491) - http://www.bohemiancoding.com/sketch -->
    <title>group</title>
    <desc>Created with Sketch.</desc>
    <g id="Page-1" stroke="none" stroke-width="1" fill="none" fill-rule="evenodd">
        <g id="Index" transform="translate(-973.000000, -4582.000000)" fill="#FFFFFF">
            <g id="About" transform="translate(0.000000, 4341.000000)">
                <g id="Group-7-Copy" transform="translate(861.000000, 206.000000)">
                    <g id="group" transform="translate(112.000000, 35.000000)">
                        <path d="M24.9830957,5.00000086 L24.9809003,5.00000086 C21.6813509,5.00000086 18.9986833,7.70867476 19.0000005,11.0052574 C19.0008787,14.2961451 21.6848634,17 24.9826567,17 L24.9901207,17 C28.3111842,16.9982477 31.0021939,14.3101637 30.9999987,10.9964958 C30.9982424,7.68282777 28.3041592,4.99824852 24.9830957,5.00000086 Z M27.94808,13.9640774 C27.1674282,14.7548191 26.1022642,15.2021029 24.9896817,15.2056076 L24.9826567,15.2056076 C22.65519,15.2047315 20.7685414,13.321408 20.7694195,10.9986861 C20.7698586,8.67596441 22.6578244,6.79351714 24.98573,6.79439325 L24.9874863,6.79439325 C26.6844601,6.80622155 28.2084437,7.83221452 28.8547426,9.39792697 C29.5014806,10.9632014 29.1440844,12.7628508 27.94808,13.9640774 Z" id="Shape" fill-rule="nonzero"></path>
                        <path d="M38.9947805,0 C35.6877709,0 32.9986801,2.70867409 33.0000005,6.00525701 C33.0017608,9.2957068 35.6917319,12 38.996981,12 L39.0797223,12 C40.6641293,11.9964953 42.1794386,11.3568925 43.2836823,10.2261975 C44.9750368,8.4975175 45.4666431,5.93122082 44.5331633,3.70443925 C43.6001236,1.47765768 41.4215639,0.019713757 38.9978612,7.15938212e-17 L38.9947805,0 Z M39.0022624,1.79439252 C41.3251791,1.80884938 43.2000608,3.68910628 43.1974201,6.00175234 C43.2084229,7.10528624 42.7775523,8.16851641 41.9998725,8.95531548 C41.2309949,9.74737155 40.1738433,10.1981601 39.066959,10.2056075 L38.9978612,10.2056075 C36.6643818,10.2051694 34.773216,8.32140774 34.7740962,5.99868572 C34.7749764,3.67596381 36.6670224,1.79395447 39.0005019,1.79439252 L39.0022624,1.79439252 Z" id="Shape" fill-rule="nonzero"></path>
                        <path d="M8.99779965,12 L9.00088066,12 C12.302377,12 14.9370598,9.37894284 15,6.03986568 C15,6.03417062 15,5.99824766 15,5.9925526 C14.9964789,2.69158879 12.3142607,0.0135806355 8.99779965,0 L8.99515886,0 C5.67605701,0.0232184299 2.9982403,2.70867409 3.00000087,6.01270441 C3.00000087,9.31235406 5.68221893,11.9903622 8.99779965,12 Z M6.03037034,3.04161802 C6.81338087,2.24824766 7.88292299,1.79921148 9.00044055,1.79439252 L9.00264122,1.79439252 C11.3208629,1.81060161 13.193222,3.68384938 13.1971832,5.99167637 C13.1487677,8.33980721 11.3067784,10.2056075 9.00044055,10.2056075 L8.99779965,10.2056075 C7.29753577,10.1950935 5.76980698,9.16997664 5.12147959,7.60557836 C4.47359231,6.04117996 4.83142676,4.24196849 6.03037034,3.04161802 Z" id="Shape" fill-rule="nonzero"></path>
                        <path d="M48.0241272,26.2117829 L48.0241272,21.651896 C48.0241272,16.8935566 44.3394272,13 39.7455495,13 L37.1672192,13 C33.8324044,13.0149179 30.8169359,15.057758 29.4666936,18.2176281 C28.2106846,17.4581744 26.7832233,17.0553926 25.3287134,17.05042 L22.7377316,17.05042 C21.2867118,17.0526802 19.8618681,17.4491333 18.6054229,18.2009021 C17.2678323,15.0491689 14.2637068,13.0108493 10.9415435,13 L8.3745562,13 C3.77151687,13 0.030974892,16.8497072 0,21.619348 L0,29.9959419 C0.0205045154,30.5194226 0.43408439,30.9339578 0.939716242,30.9375742 L14.4072382,30.9375742 L14.4072382,34.0748415 C14.4081106,34.3194038 14.5036529,34.5531166 14.6716152,34.7248978 C14.8400137,34.8962268 15.0673081,34.9911586 15.303328,34.9879942 L26.2003723,34.9879942 C25.656349,36.6411623 25.3793203,38.3757004 25.3797566,40.122444 C25.3797566,48.8751484 32.2518137,56 40.6992262,56 C49.1466388,56 55.9999365,48.8805731 55.9999365,40.1274167 C56.0160784,34.3212119 52.9521845,28.9752 48.0241272,26.2117829 Z M37.1672192,14.8516206 L39.7438044,14.8516206 C43.3512854,14.8516206 46.237183,17.9115864 46.237183,21.650992 L46.237183,25.3424796 C44.463763,24.6160259 42.5729874,24.2466963 40.6660701,24.2539292 C38.2116393,24.252573 35.7934186,24.8651087 33.6168891,26.0404537 L33.6168891,25.7316996 C33.6247418,23.3132011 32.6523056,21.0031959 30.9364727,19.3640416 C31.9102177,16.6670767 34.388643,14.8724152 37.1672192,14.8516206 Z M1.78694427,29.0859536 L1.78694427,21.6270329 C1.8139928,17.876326 4.75660485,14.8507165 8.37630126,14.8516206 L10.9397985,14.8516206 C13.7022328,14.8669905 16.165389,16.6589397 17.1177569,19.3459594 C17.0300675,19.4291377 16.9423781,19.5150282 16.8577425,19.6027271 C15.2858773,21.214758 14.4033118,23.4126534 14.4072382,25.7045763 L14.4072382,29.0859536 L1.78694427,29.0859536 Z M16.1941824,33.1363736 L16.1941824,25.7059324 C16.198545,21.9583899 19.1232702,18.9183146 22.7394766,18.9020405 L25.3274047,18.9020405 C28.9344494,18.9020405 31.8299448,21.9904858 31.8299448,25.7298914 L31.8299448,27.1714973 C29.8196325,28.7017063 28.0771874,30.7061216 26.9424602,33.1363736 L16.1941824,33.1363736 Z M40.6992262,54.1510917 C33.2255588,54.1510917 27.1667009,47.8729407 27.1667009,40.1283207 C27.1667009,32.3837007 33.2255588,26.1060018 40.6992262,26.1060018 C48.1733302,26.1060018 54.2321881,32.3841528 54.2321881,40.1283207 C54.2234626,47.8693243 48.16984,54.1425026 40.6992262,54.1510917 Z" id="Shape" fill-rule="nonzero"></path>
                        <path d="M40.9042805,34.0129538 C39.0875989,33.8970488 37.3052027,34.5628075 35.9743054,35.854917 C34.7217747,37.0580116 34.0066789,38.7492983 34,40.5231095 C34,42.863001 35.3130867,45.0248621 37.2508804,46.1876217 L37.2508804,48.9229812 C37.2508804,50.0908407 38.1997404,51 39.321363,51 L41.6799323,51 C42.8020004,51 43.7481886,50.0908407 43.7481886,48.9229812 L43.7481886,46.1732495 C45.6859823,45.0332074 47.0084196,42.869028 46.9999596,40.5003921 C46.9879375,37.0705294 44.3007626,34.2211194 40.9042805,34.0129538 Z M41.6803776,49.1010114 L39.321363,49.1010114 C39.2055942,49.1010114 39.0746862,49.0435225 39.0746862,48.9229812 L39.0746862,47.67677 L41.9243828,47.67677 L41.9243828,48.9229812 C41.9243828,49.0435225 41.7957012,49.1010114 41.6803776,49.1010114 Z M42.4609272,44.7063551 C42.1292048,44.8574952 41.9172586,45.2024287 41.9243828,45.579352 L41.9243828,45.7777814 L39.0746862,45.7777814 L39.0746862,45.6011421 C39.0822557,45.2283915 38.8760979,44.8871669 38.550164,44.7327814 C36.8942231,43.9696624 35.8336016,42.3168562 35.8336016,40.5231095 C35.8371637,39.2745801 36.339868,38.0835396 37.2210476,37.2365055 C38.1133589,36.372781 39.2884135,35.895252 40.5066588,35.9003519 C40.6023908,35.9003519 40.6999038,35.9031335 40.796081,35.9091607 C43.192943,36.0556647 45.1587885,38.1183112 45.1672485,40.5068828 C45.1601243,42.3465279 44.0932691,44.0021159 42.4609272,44.7063551 Z" id="Shape" fill-rule="nonzero"></path>
                        <path d="M41,34 C41.5522461,34 42,33.6417968 42,33.2 L42,30.8 C42,30.3582031 41.5522461,30 41,30 C40.4477539,30 40,30.3582031 40,30.8 L40,33.2 C40,33.6417968 40.4477539,34 41,34 Z" id="Path"></path>
                        <path d="M47,41 C47,41.5522461 47.3496331,42 47.7808598,42 L50.2191402,42 C50.650367,42 51,41.5522461 51,41 C51,40.4477539 50.650367,40 50.2191402,40 L47.7808598,40 C47.3496331,40 47,40.4477539 47,41 Z" id="Path"></path>
                        <path d="M33.2190658,40 L30.7809342,40 C30.3496664,40 30,40.4477539 30,41 C30,41.5522461 30.3496664,42 30.7809342,42 L33.2190658,42 C33.6503337,42 34,41.5522461 34,41 C34,40.4477539 33.6503337,40 33.2190658,40 Z" id="Path"></path>
                        <path d="M46.9473865,36.9999982 C47.1901971,37.0004731 47.4237578,36.9045374 47.5995065,36.7326129 L49.7052528,34.6780671 C50.0844999,34.3080969 50.0997623,33.6921132 49.7394775,33.3026708 C49.3791929,32.9132285 48.7797975,32.8975558 48.4005503,33.2675261 L46.294804,35.3225467 C46.0136061,35.5965812 45.9238819,36.0187936 46.0677183,36.3882888 C46.2110921,36.7577842 46.5598145,36.9999982 46.9473865,36.9999982 Z" id="Path"></path>
                        <path d="M35.4001623,36.7324833 C35.7793918,37.1024406 36.3792217,37.0867685 36.7394897,36.6973397 C37.0997576,36.3079109 37.084496,35.6924234 36.7052665,35.322466 L34.5996182,33.2675168 C34.2203888,32.8975594 33.6205588,32.9132315 33.2602908,33.3026603 C32.9000228,33.6920891 32.915747,34.3080515 33.2949765,34.6780089 L35.4001623,36.7324833 Z" id="Path"></path>
                    </g>
                </g>
            </g>
        </g>
    </g>
</svg>