<?xml version="1.0" encoding="UTF-8"?>
<svg width="48px" height="52px" viewBox="0 0 48 52" version="1.1" xmlns="http://www.w3.org/2000/svg" xmlns:xlink="http://www.w3.org/1999/xlink">
    <!-- Generator: Sketch 52.6 (67491) - http://www.bohemiancoding.com/sketch -->
    <title>stopwatch</title>
    <desc>Created with Sketch.</desc>
    <g id="Page-1" stroke="none" stroke-width="1" fill="none" fill-rule="evenodd">
        <g id="Index" transform="translate(-977.000000, -4876.000000)" fill="#FFFFFF" fill-rule="nonzero">
            <g id="About" transform="translate(0.000000, 4341.000000)">
                <g id="Group-7-Copy" transform="translate(927.000000, 498.000000)">
                    <g id="stopwatch" transform="translate(50.000000, 37.000000)">
                        <path d="M26.7139238,26.3582254 L15.388011,18.164657 C15.0415136,17.9152533 14.5611423,17.9520075 14.2566447,18.2556675 C13.952147,18.5602025 13.9145223,19.0397578 14.1656454,19.3871728 L22.3599573,30.7162272 C22.8972031,31.4556873 23.7275718,31.9203658 24.6384397,31.991249 C24.7206891,31.9973747 24.8020635,32 24.8825629,32 C25.7068065,32 26.4995504,31.6744625 27.0866709,31.0863948 C27.7315409,30.4414455 28.0614134,29.5497179 27.9905389,28.638738 C27.9196645,27.7277581 27.455043,26.8972875 26.7139238,26.3582254 Z M25.8494304,29.8490023 C25.5659326,30.1316599 25.1713106,30.2760515 24.7749387,30.245423 C24.3759418,30.2147945 24.0110696,30.0100209 23.7765714,29.6879838 L18.7777349,22.7773131 L25.6858067,27.7750135 C26.0104292,28.0112907 26.2143026,28.3762078 26.2458024,28.7761288 C26.2773021,29.1742996 26.1320532,29.5663448 25.8494304,29.8490023 Z" id="Shape"></path>
                        <path d="M46.6980455,22.5524 C46.6971752,22.5498 46.6980455,22.5463333 46.6971752,22.5437333 C46.6963049,22.5402667 46.693694,22.5376667 46.6928237,22.5342 C46.160206,20.5590667 45.3717228,18.6888 44.3691482,16.9554667 C44.3604453,16.9372667 44.3604453,16.9182 44.3500018,16.9 C44.3395583,16.8826667 44.3230228,16.8731333 44.311709,16.8566667 C43.4318454,15.353 42.390978,13.9559333 41.2082533,12.6888667 L43.0767669,10.8281333 L44.3082279,12.0536 L48,8.3772 L44.3082279,4.69993333 L40.6155855,8.3772 L41.8461762,9.60266667 L39.9776625,11.4634 C38.7052979,10.2864667 37.3023897,9.24906667 35.7924357,8.37286667 C35.7759002,8.3616 35.766327,8.34513333 35.7489212,8.33473333 C35.7315154,8.32433333 35.7106284,8.3252 35.6932226,8.31566667 C33.9526417,7.3164 32.0745549,6.53206667 30.0920332,6.00166667 C30.0885521,6.0008 30.0859412,5.9982 30.08246,5.99733333 C30.0789789,5.99646667 30.076368,5.99733333 30.0737571,5.99733333 C28.9493418,5.69746667 27.7935961,5.47906667 26.6108714,5.3482 L26.6108714,4.33333333 L27.9163071,4.33333333 C29.1164376,4.33333333 30.0920332,3.3618 30.0920332,2.16666667 C30.0920332,0.971533333 29.1164376,0 27.9163071,0 L20.0836929,0 C18.8835624,0 17.9079668,0.971533333 17.9079668,2.16666667 C17.9079668,3.3618 18.8835624,4.33333333 20.0836929,4.33333333 L21.3891286,4.33333333 L21.3891286,5.3482 C20.2064039,5.47906667 19.0506582,5.69746667 17.9271132,5.99733333 C17.923632,5.9982 17.9210211,5.99733333 17.9184103,5.9982 C17.9149291,5.99906667 17.9123182,6.00166667 17.9088371,6.00253333 C15.9263154,6.53293333 14.0482286,7.31813333 12.3076477,8.31653333 C12.2893716,8.3252 12.2693549,8.3252 12.2510788,8.3356 C12.233673,8.346 12.2240998,8.36246667 12.2075643,8.37373333 C10.6984806,9.24993333 9.29470211,10.2864667 8.02233746,11.4642667 L6.15382384,9.60266667 L7.38441455,8.3772 L3.69177213,4.69993333 L2.27373675e-13,8.3772 L3.69177213,12.0536 L4.92323313,10.8281333 L6.79174675,12.6888667 C5.6098923,13.9559333 4.56815462,15.353 3.68916126,16.8566667 C3.67784748,16.8731333 3.66044167,16.8826667 3.65086848,16.9 C3.64042499,16.9182 3.64129528,16.9372667 3.63172209,16.9554667 C2.62827719,18.6888 1.84066432,20.5590667 1.30804656,22.5342 C1.30717627,22.5376667 1.3045654,22.5402667 1.30369511,22.5437333 C1.30282482,22.5463333 1.30369511,22.5498 1.30282482,22.5524 C0.783261413,24.4833333 0.502157595,26.5087333 0.502157595,28.6 C0.502157595,30.6912667 0.783261413,32.7166667 1.30195453,34.6476 C1.30282482,34.6510667 1.30195453,34.6536667 1.30282482,34.6562667 C1.30369511,34.6606 1.30717627,34.6640667 1.30804656,34.6684 C1.84066432,36.6426667 2.62827719,38.5120667 3.6308518,40.2445333 C3.6395547,40.2627333 3.6395547,40.2818 3.64999819,40.3 C3.66479312,40.3251333 3.6856801,40.3442 3.70221561,40.3676 C4.716104,42.0948667 5.94147297,43.6843333 7.34960293,45.0944 C7.36352758,45.1108667 7.36874932,45.1308 7.38441455,45.1464 C7.40007978,45.162 7.42009646,45.1672 7.43663198,45.1810667 C8.85868659,46.5902667 10.4635022,47.8148667 12.2075643,48.8271333 C12.2240998,48.8384 12.233673,48.8548667 12.2510788,48.8652667 C12.2771875,48.88 12.3059071,48.8869333 12.3328861,48.8990667 C14.0656344,49.8905333 15.9358886,50.6705333 17.9088371,51.1983333 C17.9123182,51.1992 17.9149291,51.2018 17.9184103,51.2026667 C17.9227617,51.2035333 17.9271132,51.2035333 17.9314646,51.2044 C19.8687312,51.7209333 21.9017297,52 24,52 C26.0982703,52 28.1312688,51.7209333 30.0685354,51.2044 C30.0728868,51.2035333 30.0772383,51.2044 30.0815897,51.2026667 C30.0850709,51.2018 30.0876818,51.1992 30.0911629,51.1983333 C32.0641114,50.6705333 33.9334953,49.8905333 35.6671139,48.8990667 C35.6940929,48.8869333 35.7228125,48.8808667 35.7489212,48.8652667 C35.766327,48.8548667 35.7759002,48.8384 35.7924357,48.8271333 C37.5364978,47.8148667 39.1404431,46.5902667 40.563368,45.1810667 C40.5799035,45.1672 40.5999202,45.162 40.6155855,45.1464 C40.6312507,45.1308 40.6364724,45.11 40.6503971,45.0944 C42.058527,43.6843333 43.283896,42.0948667 44.2977844,40.3676 C44.3143199,40.3442 44.3352069,40.326 44.3500018,40.3 C44.3604453,40.2818 44.359575,40.2627333 44.3691482,40.2445333 C45.3717228,38.5120667 46.1593357,36.6426667 46.6919534,34.6684 C46.6928237,34.6640667 46.6963049,34.6606 46.6971752,34.6562667 C46.6980455,34.6536667 46.6971752,34.6502 46.6980455,34.6476 C47.2167386,32.7166667 47.4978424,30.6912667 47.4978424,28.6 C47.4978424,26.5087333 47.2167386,24.4833333 46.6980455,22.5524 Z M44.3082279,7.15086667 L45.5388186,8.3772 L44.3082279,9.60266667 L43.0767669,8.3772 L44.3082279,7.15086667 Z M2.46118142,8.3772 L3.69177213,7.15086667 L4.92323313,8.3772 L3.69177213,9.60266667 L2.46118142,8.3772 Z M43.1089676,34.5964667 L44.7755738,35.0410667 C44.3795917,36.3046667 43.8661203,37.5171333 43.2551764,38.6706667 L41.7695906,37.8161333 C41.3535918,37.5760667 40.820974,37.7173333 40.5807738,38.1333333 C40.3405737,38.5484667 40.4833013,39.078 40.8993001,39.3172 L42.3814048,40.1691333 C41.6738587,41.2802 40.8705806,42.3236667 39.9776625,43.2856667 L38.7688291,42.0818667 C38.4285455,41.743 37.878522,41.743 37.5382384,42.0818667 C37.1979548,42.4207333 37.1979548,42.9684667 37.5382384,43.3073333 L38.7470718,44.5111333 C37.7810494,45.4003333 36.7332197,46.2002667 35.6175073,46.9048667 L34.7620118,45.4289333 C34.5209414,45.0129333 33.9874533,44.8708 33.5731951,45.1117333 C33.1563259,45.3509333 33.0135983,45.8813333 33.2546687,46.2956 L34.1127751,47.775 C32.9544185,48.3834 31.7377525,48.8947333 30.4679987,49.2890667 L30.0215397,47.6302667 C29.8970882,47.1674667 29.420169,46.8918667 28.9554339,47.0175333 C28.4915691,47.1414667 28.215687,47.6164 28.3401385,48.0792 L28.7848569,49.7328 C27.517714,50.0170667 26.2096675,50.1921333 24.8702905,50.245 L24.8702905,48.5333333 C24.8702905,48.0540667 24.4812706,47.6666667 24,47.6666667 C23.5187294,47.6666667 23.1297095,48.0540667 23.1297095,48.5333333 L23.1297095,50.245 C21.7903325,50.1921333 20.482286,50.0170667 19.2151431,49.7328 L19.6598615,48.0792 C19.784313,47.6172667 19.5084309,47.1414667 19.0445661,47.0175333 C18.5807013,46.8927333 18.1029118,47.1674667 17.9784603,47.6302667 L17.5320013,49.2890667 C16.2631178,48.8947333 15.0455815,48.3834 13.8872249,47.775 L14.7453313,46.2956 C14.9855314,45.8804667 14.8428038,45.3509333 14.4268049,45.1117333 C14.0108061,44.8716667 13.4781883,45.0129333 13.2379882,45.4289333 L12.3824927,46.9048667 C11.2667803,46.2002667 10.2189506,45.4003333 9.25292816,44.5111333 L10.4617616,43.3073333 C10.8020452,42.9684667 10.8020452,42.4207333 10.4617616,42.0818667 C10.121478,41.743 9.57145447,41.743 9.2311709,42.0818667 L8.02233746,43.2856667 C7.12941944,42.3236667 6.32614135,41.2802 5.61859521,40.1691333 L7.10069986,39.3172 C7.51756899,39.078 7.66029662,38.5476 7.41922617,38.1333333 C7.17815571,37.7173333 6.64466766,37.5752 6.2304094,37.8161333 L4.74482358,38.6706667 C4.13387968,37.5171333 3.62040831,36.3055333 3.22442615,35.0410667 L4.89103238,34.5964667 C5.3548972,34.4725333 5.63077927,33.9976 5.50632774,33.5348 C5.38274649,33.072 4.90582732,32.7964 4.44022192,32.9220667 L2.77883744,33.3649333 C2.49425246,32.1030667 2.31758349,30.8004667 2.26449578,29.4666667 L3.98331943,29.4666667 C4.46459006,29.4666667 4.85360989,29.0792667 4.85360989,28.6 C4.85360989,28.1207333 4.46459006,27.7333333 3.98331943,27.7333333 L2.26449578,27.7333333 C2.31758349,26.3995333 2.49338217,25.0969333 2.77883744,23.8350667 L4.44022192,24.2788 C4.51593719,24.2987333 4.59165246,24.3082667 4.66649744,24.3082667 C5.05029554,24.3082667 5.40189288,24.0534667 5.50632774,23.6660667 C5.63164956,23.2041333 5.3548972,22.7283333 4.89103238,22.6044 L3.22442615,22.1589333 C3.62040831,20.8953333 4.13387968,19.6828667 4.74482358,18.5293333 L6.2304094,19.3838667 C6.36617471,19.4627333 6.51586467,19.5 6.66381405,19.5 C6.96493455,19.5 7.25735214,19.3448667 7.41835588,19.0666667 C7.65855604,18.6515333 7.51582841,18.122 7.09982957,17.8828 L5.61772492,17.0308667 C6.32527106,15.9198 7.12854915,14.8763333 8.02146716,13.9143333 L9.23030061,15.1181333 C9.40000725,15.2871333 9.62280161,15.3720667 9.84559597,15.3720667 C10.0683903,15.3720667 10.2911847,15.2871333 10.4608913,15.1181333 C10.8011749,14.7792667 10.8011749,14.2315333 10.4608913,13.8926667 L9.25205787,12.6888667 C10.2180803,11.8005333 11.26591,10.9997333 12.3816224,10.2951333 L13.2371179,11.7719333 C13.3989919,12.0492667 13.6905392,12.2052667 13.9916597,12.2052667 C14.1396091,12.2052667 14.2892991,12.168 14.4259347,12.0891333 C14.8428038,11.8499333 14.9855314,11.3195333 14.744461,10.9052667 L13.8863546,9.425 C15.0447112,8.8166 16.2613772,8.30526667 17.531131,7.91093333 L17.97759,9.5706 C18.0811546,9.95713333 18.4327519,10.2128 18.8174203,10.2128 C18.8922653,10.2128 18.9679806,10.2032667 19.0436958,10.1833333 C19.5075606,10.0594 19.7834427,9.58446667 19.6589912,9.12166667 L19.2142728,7.4672 C20.2342532,7.2384 21.279472,7.08153333 22.3473184,7.0018 C22.6171085,6.98186667 22.8607898,6.96713333 23.0966385,6.95586667 C23.1079523,6.95586667 23.1183958,6.95586667 23.1297095,6.955 L23.1297095,8.66666667 C23.1297095,9.14593333 23.5187294,9.53333333 24,9.53333333 C24.4812706,9.53333333 24.8702905,9.14593333 24.8702905,8.66666667 L24.8702905,6.955 C24.8816042,6.955 24.8920477,6.955 24.9033615,6.95586667 C25.1392102,6.96713333 25.3820212,6.98186667 25.6526816,7.0018 C26.720528,7.0824 27.7666171,7.2384 28.7857272,7.4672 L28.3410088,9.12166667 C28.2165573,9.5836 28.4924394,10.0594 28.9563042,10.1833333 C29.0320194,10.2032667 29.1077347,10.2128 29.1825797,10.2128 C29.5663778,10.2128 29.9188454,9.95713333 30.02241,9.5706 L30.468869,7.91093333 C31.7377525,8.30526667 32.9552888,8.8166 34.1136454,9.425 L33.255539,10.9052667 C33.0153389,11.3204 33.1580665,11.8499333 33.5740653,12.0891333 C33.7107009,12.168 33.8603909,12.2052667 34.0083403,12.2052667 C34.3094608,12.2052667 34.6018784,12.0492667 34.7628821,11.7719333 L35.6183776,10.2951333 C36.73409,10.9997333 37.7819197,11.8005333 38.7479421,12.6888667 L37.5391087,13.8926667 C37.1988251,14.2315333 37.1988251,14.7792667 37.5391087,15.1181333 C37.7088153,15.2871333 37.9316097,15.3720667 38.154404,15.3720667 C38.3771984,15.3720667 38.5999927,15.2871333 38.7696994,15.1181333 L39.9785328,13.9143333 C40.8714508,14.8763333 41.6747289,15.9198 42.3822751,17.0308667 L40.9001704,17.8828 C40.4833013,18.122 40.3405737,18.6515333 40.5816441,19.0666667 C40.7435181,19.3448667 41.0350655,19.5 41.336186,19.5 C41.4841353,19.5 41.6338253,19.4627333 41.7704609,19.3838667 L43.2560467,18.5293333 C43.8669906,19.6828667 44.380462,20.8944667 44.7764441,22.1589333 L43.1098379,22.6044 C42.6459731,22.7283333 42.3692207,23.2032667 42.4945426,23.6660667 C42.5989774,24.0534667 42.9497045,24.3082667 43.3343728,24.3082667 C43.4092178,24.3082667 43.4849331,24.2987333 43.5606484,24.2788 L45.2220329,23.8350667 C45.5074881,25.0969333 45.6832868,26.3995333 45.7363745,27.7333333 L44.0166806,27.7333333 C43.5354099,27.7333333 43.1463901,28.1207333 43.1463901,28.6 C43.1463901,29.0792667 43.5354099,29.4666667 44.0166806,29.4666667 L45.7355042,29.4666667 C45.6824165,30.8004667 45.5066178,32.1030667 45.2211626,33.3658 L43.5597781,32.9229333 C43.0976538,32.7981333 42.6181238,33.0737333 42.4936723,33.5356667 C42.3692207,33.9976 42.6451028,34.4725333 43.1089676,34.5964667 Z M23.1297095,5.21906667 L23.1297095,2.6 L20.0836929,2.6 C19.8443631,2.6 19.6485477,2.405 19.6485477,2.16666667 C19.6485477,1.92833333 19.8443631,1.73333333 20.0836929,1.73333333 L27.9163071,1.73333333 C28.1556369,1.73333333 28.3514523,1.92833333 28.3514523,2.16666667 C28.3514523,2.405 28.1556369,2.6 27.9163071,2.6 L24.8702905,2.6 L24.8702905,5.21906667 C24.5656888,5.20606667 24.2793632,5.2 24,5.2 C23.7206368,5.2 23.4343112,5.20606667 23.1297095,5.21906667 Z" id="Shape"></path>
                    </g>
                </g>
            </g>
        </g>
    </g>
</svg>