<?xml version="1.0" encoding="UTF-8"?>
<svg width="13px" height="23px" viewBox="0 0 13 23" version="1.1" xmlns="http://www.w3.org/2000/svg" xmlns:xlink="http://www.w3.org/1999/xlink">
    <!-- Generator: Sketch 52.6 (67491) - http://www.bohemiancoding.com/sketch -->
    <title>Path</title>
    <desc>Created with Sketch.</desc>
    <g id="Page-1" stroke="none" stroke-width="1" fill="none" fill-rule="evenodd">
        <g id="Index" transform="translate(-220.000000, -39.000000)" fill="#ED3282" fill-rule="nonzero">
            <g id="Search">
                <g id="Group-2" transform="translate(201.000000, 25.000000)">
                    <g id="facebook-logo" transform="translate(19.000000, 14.000000)">
                        <path d="M12.5104582,0.0047855352 L9.39234929,0 C5.88926091,0 3.6254113,2.22168472 3.6254113,5.66033103 L3.6254113,8.27012266 L0.49029229,8.27012266 C0.219380785,8.27012266 0,8.48020765 0,8.73934438 L0,12.520635 C0,12.7797718 0.219630934,12.9896175 0.49029229,12.9896175 L3.6254113,12.9896175 L3.6254113,22.5310176 C3.6254113,22.7901543 3.84479209,23 4.11570359,23 L8.20614212,23 C8.47705363,23 8.69643441,22.789915 8.69643441,22.5310176 L8.69643441,12.9896175 L12.3621197,12.9896175 C12.6330312,12.9896175 12.852412,12.7797718 12.852412,12.520635 L12.8539129,8.73934438 C12.8539129,8.61492047 12.802132,8.49576064 12.7103273,8.40770679 C12.6185226,8.31965294 12.493448,8.27012266 12.3633705,8.27012266 L8.69643441,8.27012266 L8.69643441,6.05776973 C8.69643441,4.99442381 8.96134234,4.45461544 10.4094556,4.45461544 L12.5099579,4.45389761 C12.7806192,4.45389761 13,4.24381262 13,3.98491516 L13,0.473767985 C13,0.215109807 12.7808694,0.00526408872 12.5104582,0.0047855352 Z" id="Path"></path>
                    </g>
                </g>
            </g>
        </g>
    </g>
</svg>