<?xml version="1.0" encoding="UTF-8"?>
<svg width="55px" height="55px" viewBox="0 0 55 55" version="1.1" xmlns="http://www.w3.org/2000/svg" xmlns:xlink="http://www.w3.org/1999/xlink">
    <!-- Generator: Sketch 52.6 (67491) - http://www.bohemiancoding.com/sketch -->
    <title>team</title>
    <desc>Created with Sketch.</desc>
    <g id="Page-1" stroke="none" stroke-width="1" fill="none" fill-rule="evenodd">
        <g id="Index" transform="translate(-1497.000000, -4582.000000)" fill="#FFFFFF">
            <g id="About" transform="translate(0.000000, 4341.000000)">
                <g id="Group-7-Copy-2" transform="translate(1456.000000, 206.000000)">
                    <g id="team" transform="translate(41.000000, 35.000000)">
                        <path d="M14.6817071,21.1846809 L1.85517114,8.31911047 C1.43070976,7.89368435 0.742725903,7.89357535 0.318264529,8.31911047 C-0.106088176,8.74475459 -0.106088176,9.43494116 0.318264529,9.86069428 L12.8259654,22.4062414 L12.823792,23.9083673 C12.8229227,24.510373 13.3087821,24.999128 13.9088527,25 C13.909396,25 13.9099394,25 13.9104827,25 C14.5099013,25 14.996304,24.512989 14.9971734,23.9116372 L14.9999988,21.9570533 C15.0004334,21.6674409 14.8858962,21.3894915 14.6817071,21.1846809 Z" id="Path"></path>
                        <path d="M23.9745296,12.8223528 C23.9740169,12.8223528 23.9735042,12.8223528 23.9729914,12.8223528 L21.5533967,12.8259389 L9.75065551,0.318187087 C9.35020976,-0.106062362 8.70088261,-0.106062362 8.30033431,0.318187087 C7.89988856,0.742545207 7.89988856,1.43064652 8.30033431,1.85511331 L20.4042558,14.6817042 C20.5966338,14.8854613 20.8574107,15 21.1293651,15 C21.1297753,15 21.1303906,15 21.1308008,15 L23.9759653,14.9957619 C24.542332,14.9948925 25.0008193,14.5077228 24.9999989,13.9075359 C24.9991785,13.3077837 24.540281,12.8223528 23.9745296,12.8223528 Z" id="Path"></path>
                        <path d="M46.707,0.293 C46.521,0.107 46.263,0 46,0 C45.737,0 45.479,0.1069 45.293,0.293 C45.107,0.4791 45,0.737 45,1 C45,1.263 45.107,1.521 45.293,1.7069 C45.479,1.893 45.737,2 46,2 C46.263,2 46.521,1.893 46.707,1.7069 C46.893,1.521 47,1.263 47,1 C47,0.737 46.893,0.479 46.707,0.293 Z" id="Path"></path>
                        <path d="M43.6905604,2.32580847 C43.2779743,1.89139718 42.6089614,1.89139718 42.1963752,2.32580847 L33.1299404,11.8742889 L31.6737913,11.8720634 C31.6686142,11.8720634 31.663754,11.8720634 31.6586825,11.8720634 C28.8634511,11.8720634 26.2358956,13.0181793 24.2589688,15.1001043 L23.3094396,16.1003408 C22.8968535,16.5349746 22.8968535,17.2394464 23.3094396,17.6740803 C23.5157855,17.8912859 23.7861588,18 24.0565322,18 C24.3269055,18 24.5973845,17.8912859 24.8036248,17.6740803 L25.7532596,16.6738438 C27.3311242,15.0120871 29.4278647,14.0976424 31.6587882,14.0976424 C31.6628031,14.0976424 31.6669237,14.0976424 31.6708329,14.0976424 L33.5654538,14.1004242 C33.5659821,14.1004242 33.5664047,14.1004242 33.566933,14.1004242 C33.8471323,14.1004242 34.1159208,13.9831421 34.3140256,13.7745045 L43.6905604,3.89954795 C44.1031465,3.46502538 44.1031465,2.76044231 43.6905604,2.32580847 Z" id="Path"></path>
                        <path d="M54.6817332,8.30025697 C54.2574861,7.89991434 53.5692799,7.89991434 53.1449241,8.30025697 L40.3182952,20.4042635 C40.1142132,20.5969489 39.9995666,20.8583407 40.0000012,21.13091 L40.004348,23.9760704 C40.0052174,24.5419235 40.491515,25 41.0910466,25 C41.0915899,25 41.0921333,25 41.0926766,25 C41.6928602,24.9991796 42.1787231,24.5394624 42.1778538,23.972994 L42.174159,21.5534027 L54.6817332,9.75057607 C55.1060889,9.3501309 55.1060889,8.70080469 54.6817332,8.30025697 Z" id="Path"></path>
                        <path d="M54.6763506,45.2049436 L41.9587641,33.1028228 L41.960974,31.6536974 C41.9630733,30.2721811 41.6820882,28.9248373 41.1258637,27.6488878 C40.8920594,27.1124318 40.2455616,26.858083 39.681934,27.0804673 C39.1181959,27.3029567 38.8508015,27.9181673 39.0846059,28.4545183 C39.5284585,29.4728595 39.7526499,30.54819 39.7509925,31.6506482 L39.7481197,33.5361304 C39.7476777,33.8155039 39.8641379,34.0836268 40.0717553,34.2811966 L53.1137508,46.6920267 C53.3295447,46.8972721 53.6122977,47 53.8950507,47 C54.1778037,47 54.4606672,46.8972721 54.6763506,46.6920267 C55.1078279,46.2813255 55.1079384,45.6155396 54.6763506,45.2049436 Z" id="Path"></path>
                        <path d="M46.6996675,53.1447915 L34.5957165,40.3182935 C34.4033396,40.1145378 34.1425643,40 33.8706115,40 C33.8702013,40 33.8695861,40 33.8691759,40 L31.0240285,40.0042381 C30.4576653,40.0051075 29.9991807,40.4922736 30.0000011,41.0924562 C30.0008215,41.692204 30.4597162,42.1776314 31.0254642,42.1776314 C31.0259769,42.1776314 31.0264897,42.1776314 31.0270024,42.1776314 L33.4465825,42.1740453 L45.2494576,54.6817065 C45.4497305,54.8938297 45.7121465,55 45.9745625,55 C46.2369786,55 46.4994971,54.8938297 46.6996675,54.6817065 C47.1001108,54.2573515 47.1001108,53.5692552 46.6996675,53.1447915 Z" id="Path"></path>
                        <path d="M9.707,53.293 C9.521,53.1069 9.263,53 9,53 C8.737,53 8.479,53.1069 8.293,53.293 C8.107,53.479 8,53.737 8,54 C8,54.263 8.107,54.521 8.293,54.7069 C8.479,54.8929 8.737,55 9,55 C9.263,55 9.521,54.893 9.707,54.7069 C9.894,54.521 10,54.263 10,54 C10,53.737 9.894,53.479 9.707,53.293 Z" id="Path"></path>
                        <path d="M38.1218678,26.7018215 C37.8801097,26.4557309 37.6067993,26.2612889 37.3154743,26.116868 C37.5646941,25.6654849 37.6980449,25.1547493 37.6980449,24.622855 C37.6980449,23.8063507 37.3857206,23.0386739 36.8185269,22.4612074 C36.561952,22.200143 36.2702007,21.9962611 35.9586226,21.8495616 C36.4961827,20.7117723 36.303032,19.3028277 35.3775715,18.360674 C34.4522176,17.4189543 33.0687171,17.2220167 31.9510652,17.7686677 C31.8044967,17.4475997 31.6024986,17.1515966 31.3492281,16.8937874 C30.178172,15.7019624 28.2731006,15.7021794 27.1021511,16.8937874 L22.8463333,21.2259801 C22.7651077,20.3478447 22.319859,19.5121349 21.5630323,18.9727538 C20.8871115,18.4909891 20.0681397,18.3104359 19.2569494,18.4647308 C18.445759,18.6190257 17.7460674,19.0880952 17.2864284,19.7856774 L14.3664631,24.2181293 C13.1931685,25.999248 12.5744893,28.0743082 12.577474,30.219029 L12.5810982,32.7791091 L0.312191019,45.2679899 C-0.104063673,45.6917041 -0.104063673,46.3787612 0.312191019,46.8025839 C0.520265067,47.0143868 0.793149065,47.1203967 1.06592647,47.1203967 C1.33870387,47.1203967 1.61158787,47.0143868 1.81966192,46.8025839 L14.4014263,33.9953478 C14.6016123,33.7914659 14.7140704,33.5147767 14.713644,33.2264775 L14.7093802,30.2160994 C14.7070351,28.5045327 15.200678,26.8484125 16.1372244,25.4268812 L19.0570832,20.9944293 C19.1950175,20.7851221 19.4050103,20.6443904 19.6483673,20.598167 C19.8916179,20.5519436 20.1375332,20.6059794 20.3402775,20.7505088 C20.7332944,21.0306702 20.8462855,21.5772126 20.5975986,21.9948505 L19.4566024,23.9106246 C19.0967366,24.5147835 19.2320061,25.2698737 19.7780938,25.706066 C20.3241816,26.1422583 21.0769577,26.096035 21.5678291,25.5964754 L28.609622,18.4283814 C28.9493413,18.0824657 29.502038,18.0825742 29.8417572,18.4283814 C30.0062338,18.595914 30.0969464,18.8185674 30.0969464,19.055435 C30.0969464,19.2564958 30.0310705,19.4468146 29.9107244,19.6024115 L25.7434873,23.8542017 C25.3272326,24.2779159 25.3272326,24.9649731 25.7434873,25.3887957 C26.159742,25.8124014 26.8347035,25.8124014 27.2510648,25.3887957 L32.6381786,19.895268 C32.9778979,19.5494608 33.5305946,19.5494608 33.8702072,19.8951595 C34.2099265,20.2410752 34.2099265,20.803568 33.8702072,21.1493752 L28.4782966,26.6380202 C28.0620419,27.0617344 28.0620419,27.7487916 28.4782966,28.1726143 C28.6864772,28.3844171 28.9592546,28.490427 29.232032,28.490427 C29.5048094,28.490427 29.7776934,28.3844171 29.9857675,28.1726143 L34.157908,23.9255983 C34.4995459,23.6525984 34.9965999,23.675493 35.3111626,23.9958014 C35.4757458,24.163334 35.5663518,24.3859874 35.5663518,24.622855 C35.5663518,24.8597227 35.4757458,25.0822676 35.3111626,25.2498001 L31.2128927,29.4215132 C30.796638,29.8452274 30.796638,30.5322845 31.2128927,30.9561072 C31.4210733,31.1679101 31.6938507,31.27392 31.9666282,31.27392 C32.2394056,31.27392 32.5122896,31.1679101 32.7203636,30.9561072 L35.4609291,28.1664294 C35.802567,27.8928869 36.2998342,27.9158901 36.6146101,28.2364155 C36.7791933,28.4038396 36.8697993,28.6266015 36.8697993,28.8634691 C36.8697993,29.1003367 36.7791933,29.3229901 36.6146101,29.4904142 L29.0026389,37.2389044 C27.4107445,38.8593263 25.2953606,39.751025 23.0446006,39.751025 C23.0405499,39.751025 23.0363927,39.751025 23.0324487,39.751025 L21.1209816,39.7483123 C21.1204486,39.7483123 21.1200222,39.7483123 21.1194892,39.7483123 C20.8367985,39.7483123 20.56562,39.8626772 20.3657538,40.0661251 L10.4617702,50.1475932 C10.0455155,50.5713074 10.0455155,51.2583645 10.4617702,51.6821872 C10.6699508,51.8939901 10.9427283,52 11.2155057,52 C11.4882831,52 11.7611671,51.8939901 11.9692411,51.6821872 L21.5603675,41.9190744 L23.029464,41.9212446 C23.0346872,41.9212446 23.0395906,41.9212446 23.0447072,41.9212446 C25.8647927,41.9212446 28.5157115,40.8036373 30.5102164,38.7734984 L38.1218678,31.0250083 C39.2927107,29.8331833 39.2927107,27.893755 38.1218678,26.7018215 Z" id="Path"></path>
                    </g>
                </g>
            </g>
        </g>
    </g>
</svg>