<?xml version="1.0" encoding="UTF-8"?>
<svg width="54px" height="63px" viewBox="0 0 54 63" version="1.1" xmlns="http://www.w3.org/2000/svg" xmlns:xlink="http://www.w3.org/1999/xlink">
    <!-- Generator: Sketch 52.6 (67491) - http://www.bohemiancoding.com/sketch -->
    <title>heart</title>
    <desc>Created with Sketch.</desc>
    <g id="Page-1" stroke="none" stroke-width="1" fill="none" fill-rule="evenodd">
        <g id="Index" transform="translate(-450.000000, -4578.000000)" fill="#FFFFFF">
            <g id="About" transform="translate(0.000000, 4341.000000)">
                <g id="Group-7" transform="translate(414.000000, 206.000000)">
                    <g id="heart" transform="translate(36.000000, 31.000000)">
                        <path d="M52.3362135,16.1291361 C48.0789772,6.87477601 39.1518676,0.719762474 29.0757612,0.0922122982 L28.07412,0 L27.1586795,0.0230003114 C24.0493963,0.138634972 21.0023113,0.934994872 18.2280217,2.35932689 C10.8523186,6.08727865 6.20331716,13.7197993 6.23065933,22.0564675 L6.23065933,25.9654677 L0.148594997,36.213906 C-0.0444698327,36.5375987 -0.0496878415,36.941898 0.134610827,37.271077 C0.319326906,37.6002559 0.664756449,37.8036716 1.03898915,37.8036716 L7.53869975,37.8036716 L6.90857783,47.2673558 C6.42789854,50.066643 8.25272657,52.739534 11.0126146,53.278881 C11.0806569,53.2923858 11.1507864,53.2997713 11.2198723,53.2997713 C11.2570243,53.2997713 11.2948023,53.2976611 11.3309107,53.2938629 L17.6532103,52.600477 L17.6532103,61.9500035 C17.6532103,62.5296539 18.118027,63 18.6917948,63 L43.613857,63 C44.1874161,63 44.6522328,62.5296539 44.6522328,61.9500035 L44.6522328,51.5169296 L52.7661741,31.247313 C54.5490497,26.3389592 54.3945978,20.9256534 52.3362135,16.1291361 Z M50.8255072,30.5001189 L42.6506199,50.9265175 C42.5938484,51.0763362 42.5727679,51.2367054 42.5875869,51.3964416 C42.5875869,51.4183869 42.5752725,51.437589 42.5752725,51.4595343 L42.5752725,60.900007 L19.7301705,60.900007 L19.7301705,51.4515158 C19.7301705,51.4297815 19.7184823,51.4103684 19.7176475,51.3886342 C19.7166038,51.3666889 19.7266223,51.3424225 19.7234915,51.3187891 C19.7115946,51.2586507 19.6923925,51.2004113 19.6688073,51.1442821 C19.6575365,51.0980704 19.6427174,51.0531248 19.6253938,51.0088123 C19.5834413,50.9195542 19.5293831,50.8362043 19.4636367,50.7623501 C19.452992,50.7429369 19.4413038,50.7243679 19.4289894,50.7062209 C19.4175099,50.6969363 19.4051955,50.6884958 19.3935072,50.6783672 C19.1783182,50.4644009 18.8806853,50.3580508 18.5801303,50.3875925 L11.2722607,51.1871176 C9.66032581,50.7760659 8.64887478,49.1616119 8.96967549,47.5125519 L9.68641564,36.8260523 C9.72669835,36.2472459 9.29506803,35.744826 8.72276119,35.7041007 C8.64470036,35.7041007 2.87654907,35.7041007 2.87654907,35.7041007 L8.1617252,26.7932684 C8.17153499,26.7717451 8.17925757,26.7495889 8.18572787,26.7265886 C8.21599207,26.6630739 8.23915987,26.596394 8.2554399,26.5284481 C8.27589437,26.4596581 8.29008724,26.3889691 8.29676624,26.317858 C8.29676624,26.2938026 8.31095912,26.2727014 8.31095912,26.247802 L8.31095912,22.0564675 C8.28257337,14.5113059 12.4857515,7.60107987 19.1597422,4.22235319 C21.6654108,2.9360231 24.4173675,2.21562763 27.2248434,2.10991055 L28.055544,2.10991055 C37.6977241,2.3850704 46.3620568,8.13768374 50.4418821,16.9746618 C52.2798594,21.266649 52.4176138,26.108956 50.8255072,30.5001189 Z" id="Shape" fill-rule="nonzero"></path>
                        <path d="M29.5000504,10.2230151 C25.6532498,6.97746958 19.9128854,7.32468494 16.4917794,11.0094663 C13.0698331,14.6948736 13.1864473,20.4043128 16.7548444,23.9488725 L28.5807936,35.6957693 C28.8220066,35.9348971 29.1647055,36.04215 29.5000504,35.984559 C29.559303,35.9947834 29.6193961,36 29.6799095,36 C29.9570523,36 30.2226387,35.8902432 30.419097,35.6957693 L42.2450462,23.9488725 C45.8134433,20.4043128 45.9302678,14.6948736 42.5083214,11.0094663 C39.0865851,7.32468494 33.3460105,6.97746958 29.5000504,10.2230151 Z M40.7670915,22.4811364 L29.5000504,33.6715287 L18.2327991,22.4811364 C15.3748037,19.6433185 15.3748037,15.042089 18.2327991,12.2036451 C21.0905846,9.36582722 25.724479,9.36582722 28.5818442,12.2036451 L28.7621236,12.3822607 C29.1699584,12.787693 29.8320334,12.787693 30.2404986,12.3822607 L30.4199375,12.2036451 C33.2777229,9.36582722 37.910987,9.36582722 40.7689825,12.2036451 C43.6265578,15.042089 43.6265578,19.6433185 40.7689825,22.4811364 L40.7670915,22.4811364 Z" id="Shape" fill-rule="nonzero"></path>
                        <path d="M23.0000284,12 C20.5733636,12 18.385687,13.5275903 17.4568691,15.8717165 C16.5282523,18.2156326 17.0416045,20.9131847 18.7569327,22.70658 C19.1492834,23.1024507 19.7729843,23.0971976 20.158903,22.6941827 C20.5442187,22.2905375 20.5500477,21.6389477 20.171164,21.2283684 C19.0272768,20.0325615 18.685176,18.2343335 19.3042539,16.6716527 C19.9239348,15.1089719 21.3823859,14.0902983 23.0000284,14.0907185 C23.5521735,14.0907185 24,13.6225657 24,13.0451492 C24,12.468363 23.5521735,12 23.0000284,12 Z" id="Path"></path>
                    </g>
                </g>
            </g>
        </g>
    </g>
</svg>