<?xml version="1.0" encoding="UTF-8"?>
<svg width="65px" height="47px" viewBox="0 0 65 47" version="1.1" xmlns="http://www.w3.org/2000/svg" xmlns:xlink="http://www.w3.org/1999/xlink">
    <!-- Generator: Sketch 52.6 (67491) - http://www.bohemiancoding.com/sketch -->
    <title>handshake</title>
    <desc>Created with Sketch.</desc>
    <g id="Page-1" stroke="none" stroke-width="1" fill="none" fill-rule="evenodd">
        <g id="Index" transform="translate(-444.000000, -4878.000000)" fill="#FFFFFF">
            <g id="About" transform="translate(0.000000, 4341.000000)">
                <g id="Group-7" transform="translate(414.000000, 498.000000)">
                    <g id="handshake" transform="translate(30.000000, 39.000000)">
                        <path d="M64.6956944,12.9834278 L52.0892922,0.686948938 C51.6839322,0.291434759 51.0266982,0.291434759 50.6210843,0.686948938 L44.3178832,6.83512646 C44.1232647,7.0249584 44.0139584,7.28252556 44.0139584,7.55111362 C44.0139584,7.81970167 44.1232647,8.07726883 44.3178832,8.26710078 L44.9466799,8.88043256 L43.5017043,10.2896221 C42.5636509,11.2042332 41.1081383,11.4538752 39.879998,10.910136 C38.7285371,10.4003264 37.4484731,10.1309954 36.1779305,10.1309954 C34.6693517,10.1309954 33.1950501,10.5003814 31.8851522,11.2000229 C31.3388748,11.0687627 30.7782517,11.0015228 30.2120427,11.0015228 C29.3931979,11.0015228 28.5889526,11.139346 27.8216505,11.4114014 C26.5964301,11.8455506 25.2831045,11.5764672 24.393547,10.7090355 L21.7990148,8.17819057 L22.1080177,7.87678747 C22.3026362,7.68695553 22.4119424,7.42938837 22.4119424,7.16080031 C22.4119424,6.89221226 22.3026362,6.6346451 22.1080177,6.44481315 L15.8048166,0.296635634 C15.3992027,-0.0988785448 14.7420956,-0.0988785448 14.3366087,0.296635634 L0.304019957,13.984101 C-0.101339986,14.3796152 -0.101339986,15.0206849 0.304019957,15.4160753 L6.60709412,21.5642528 C6.80183954,21.7542086 7.06577419,21.8608265 7.34126153,21.8608265 C7.61674887,21.8608265 7.88055656,21.7542086 8.07542894,21.5642528 L8.45133586,21.1975911 L10.2812319,22.982482 C10.7429589,23.432853 11.0490418,23.9951667 11.1662192,24.6084985 C11.7738147,27.7888337 13.3353328,30.6801488 15.6819264,32.9702675 L16.0266029,33.306467 C15.3646716,33.9864195 15.0005713,34.8723019 15.0005713,35.8134127 C15.0005713,36.7868432 15.3893004,37.7020734 16.0949035,38.3904464 C16.823358,39.100985 17.7799466,39.4561305 18.7369159,39.4561305 C18.7992497,39.4561305 18.8613296,39.4545207 18.9236633,39.4514249 C18.8731362,40.4444206 19.2357131,41.4537619 20.011394,42.2106131 C20.717124,42.898986 21.6554314,43.2780308 22.6534065,43.2780308 C22.6812091,43.2780308 22.7088848,43.2766686 22.7366874,43.2760495 C22.7153594,44.235611 23.0783171,45.2018593 23.827338,45.9325823 C24.533068,46.6210791 25.4713753,47 26.4694774,47 C27.4674525,47 28.4056329,46.6208314 29.1114899,45.9325823 C29.1709037,45.8746297 29.2268898,45.8146958 29.2816065,45.7540189 C29.6491345,45.8789637 30.0378636,45.9454606 30.4307822,45.9454606 C31.3642654,45.9454606 32.2412545,45.5906866 32.8988695,44.9471402 C33.2488781,44.6058638 33.5144631,44.2044057 33.6873727,43.7671607 L33.7936321,43.8708067 C34.4739715,44.5344136 35.3675915,44.866279 36.2612115,44.866279 C37.1548315,44.866279 38.0484515,44.5344136 38.728791,43.8708067 C39.0903522,43.5181379 39.362031,43.1016963 39.5341788,42.6476104 C40.1431709,43.0796545 40.8641352,43.2959862 41.5854804,43.2959862 C42.4791004,43.2959862 43.3732282,42.9642446 44.0542025,42.3008854 C44.7132139,41.658082 45.0761716,40.8029095 45.0761716,39.893004 C45.0761716,39.6181006 45.0424022,39.3485219 44.9780372,39.087859 C45.6428884,38.9561035 46.2537848,38.6377356 46.7439491,38.1590074 C47.4029605,37.516204 47.7659183,36.661403 47.7659183,35.7521166 C47.7659183,35.035758 47.5396886,34.3538242 47.1218873,33.7819756 L47.9546969,32.9696484 C50.3285853,30.65303 51.8968319,27.7254325 52.4900818,24.5032426 C52.5894858,23.9637138 52.8634497,23.4625723 53.2826475,23.0535606 L56.3800392,20.0323474 L56.9245393,20.5634558 C57.1272828,20.7612129 57.3929948,20.8600295 57.6587067,20.8600295 C57.9242918,20.8600295 58.1901307,20.7612129 58.3928741,20.5634558 L64.6960753,14.4152783 C64.8906937,14.2254463 65,13.9678792 65,13.6992911 C65,13.4307031 64.8903129,13.1733836 64.6956944,12.9834278 Z M7.34126153,19.4164152 L2.50614134,14.700212 L15.0705222,2.44484477 L19.9057694,7.16104797 L7.34126153,19.4164152 Z M19.9107205,36.9587197 C19.2636427,37.5897592 18.2105701,37.5900069 17.5629844,36.9587197 C17.2494113,36.6527349 17.0767556,36.2461998 17.0767556,35.8136603 C17.0767556,35.3812447 17.2495382,34.9745858 17.5631114,34.6687248 C17.8867138,34.3530812 18.3116244,34.1951975 18.736789,34.1951975 C19.1618266,34.1951975 19.5871181,34.3530812 19.9105936,34.6687248 C20.5577984,35.300012 20.5577984,36.3273087 19.9107205,36.9587197 Z M23.8269571,40.7786387 C23.5136379,41.0846236 23.0968522,41.252909 22.6531526,41.252909 C22.2098338,41.252909 21.7929211,41.0843759 21.4794749,40.7786387 C20.8321432,40.1473515 20.8321432,39.1200549 21.4794749,38.4886438 C21.8030773,38.1730002 22.227988,38.0151165 22.6532795,38.0151165 C23.0781902,38.0151165 23.5034817,38.1730002 23.8269571,38.4886438 C24.4744159,39.119931 24.4744159,40.1473515 23.8269571,40.7786387 Z M27.6429011,44.500608 C27.329328,44.806469 26.9125423,44.9748782 26.4692235,44.9748782 C26.0257777,44.9748782 25.6088651,44.8063451 25.2954189,44.500608 C24.6480871,43.8693208 24.6480871,42.8420241 25.2954189,42.2106131 C25.6190213,41.8949695 26.043932,41.7370857 26.4692235,41.7370857 C26.8941342,41.7370857 27.3194257,41.8949695 27.6429011,42.2106131 C28.2902329,42.8420241 28.2902329,43.8693208 27.6429011,44.500608 Z M45.2751065,36.7275284 C45.0082519,36.9880675 44.6534192,37.1315869 44.2761158,37.1315869 C43.8988124,37.1315869 43.5439796,36.9880675 43.2766172,36.7269093 L33.2054602,26.9056755 C32.7997194,26.5102852 32.1426123,26.510409 31.7372524,26.9059232 C31.3320194,27.3013135 31.3321463,27.9425071 31.7375063,28.3378975 L42.5857407,38.9182114 C42.8527222,39.1785028 42.9996064,39.5247325 42.9996064,39.893004 C42.9996064,40.2620185 42.8525952,40.6086196 42.5861215,40.8685396 C42.0342582,41.4063348 41.1368296,41.4064587 40.5858549,40.8689111 L38.7557049,39.0837726 C38.7455487,39.0734946 38.7356464,39.0630929 38.7251093,39.0529388 C38.7220625,39.0499669 38.7186348,39.0473664 38.7154609,39.0443945 L30.302687,30.8385278 C29.8970731,30.4431375 29.239966,30.4431375 28.8344791,30.8385278 C28.4289922,31.2339182 28.4289922,31.8751118 28.8344791,32.2705022 L37.274294,40.5026209 C37.5322619,40.7605595 37.6743219,41.101836 37.6743219,41.463916 C37.6743219,41.8321875 37.5271837,42.1784172 37.2603292,42.4387086 C36.7096084,42.9762562 35.8129416,42.9762562 35.261713,42.4387086 L26.1103282,33.512273 C25.7047144,33.1167589 25.0476073,33.1167589 24.6421204,33.512273 C24.2366335,33.9076634 24.2366335,34.548857 24.6421204,34.9442474 L31.4257105,41.5611228 C31.4276147,41.5629803 31.4291382,41.5650854 31.4311694,41.566819 C31.697897,41.8264913 31.8446543,42.1721018 31.8446543,42.5400018 C31.8446543,42.9081495 31.6976431,43.2543792 31.429646,43.5157851 C31.1631723,43.7763242 30.8084665,43.9198436 30.4305283,43.9198436 C30.3392493,43.9198436 30.2500016,43.9106801 30.1626581,43.8945822 C30.3306165,42.7908821 29.9803541,41.6260099 29.1112359,40.7781434 C28.4055059,40.0898943 27.4671986,39.7107257 26.4692235,39.7107257 C26.4414209,39.7107257 26.4137452,39.7120878 26.3859425,39.712707 C26.4072706,38.7531455 26.0444398,37.7868972 25.295292,37.0561742 C24.589435,36.367925 23.6512546,35.9887565 22.6531526,35.9887565 C22.5906918,35.9887565 22.528612,35.9902424 22.466659,35.9932144 C22.5165515,35.0008378 22.1539746,33.9923634 21.3786745,33.2360075 C20.4349082,32.3155764 19.1082526,31.9922553 17.8945848,32.2643106 L17.1501343,31.5381694 C15.1011178,29.5386805 13.7378998,27.0140271 13.2073645,24.2371312 C13.013,23.2201124 12.5088708,22.2908894 11.7495668,21.5501361 L9.91954373,19.7651215 L20.3309339,9.6097934 L22.925593,12.1406384 C23.9229334,13.1134497 25.2808194,13.6340325 26.6715861,13.6340325 C27.294416,13.6340325 27.9242283,13.5295197 28.5309352,13.3144264 C28.8252115,13.2100374 29.1295171,13.13512 29.4378852,13.0875691 L23.0100166,19.3574719 C22.2235446,20.1244772 21.7903821,21.144344 21.7903821,22.2292219 C21.7903821,23.3139758 22.2235446,24.3338427 23.0098896,25.100848 C23.8216251,25.8926193 24.8875199,26.2883812 25.9539225,26.2882573 C27.0200712,26.2882573 28.0863469,25.8922478 28.8982093,25.100848 L32.1266163,21.9518418 L33.0004316,22.8047854 C33.0006855,22.805033 33.0008125,22.8051569 33.0010664,22.8054045 L33.0373749,22.84082 L33.0722869,22.8748734 C33.0724138,22.8749972 33.0726677,22.8752449 33.0729216,22.8753687 L33.0735564,22.8759878 C33.0835857,22.8856466 33.093361,22.8948101 33.1031364,22.9039735 L45.2754873,34.7769525 C45.5424688,35.037244 45.6893531,35.3834737 45.6893531,35.7517452 C45.6893531,36.1206358 45.5424688,36.4668655 45.2751065,36.7275284 Z M51.8140587,21.6217101 C51.0937292,22.3244474 50.6207034,23.1972038 50.4462704,24.1454967 C49.9283035,26.9589226 48.5588648,29.5152766 46.4862352,31.5379217 L45.6884644,32.3161956 L39.1210748,25.9103271 C39.2637696,25.920605 39.4070992,25.9274156 39.5514444,25.9274156 C40.2164226,25.9274156 40.896889,25.8137394 41.5743086,25.5434177 C42.1049708,25.3316678 42.3591301,24.7403778 42.142041,24.2228907 C41.9249519,23.7054036 41.3192606,23.4573714 40.7882175,23.6691213 C38.1163712,24.7354246 34.9131009,21.7968062 34.5564908,21.4581302 C34.550524,21.452434 34.5445572,21.4468616 34.5384635,21.4414131 L34.5016472,21.4055023 C34.5015203,21.4053785 34.5013933,21.4053785 34.5012664,21.4052546 L34.4691473,21.3740494 C34.4690204,21.3739255 34.4687665,21.3736779 34.4685126,21.373554 L33.5945702,20.5204867 L34.5855629,19.553743 C34.9911768,19.1582289 34.9911768,18.5171591 34.5856899,18.1216449 C34.180203,17.7263784 33.5229689,17.7262545 33.117609,18.1216449 L31.394861,19.8020229 C31.3942262,19.8026421 31.3934645,19.8032612 31.3928297,19.8038804 C31.3921949,19.8044995 31.3915602,19.8052425 31.3909254,19.8058617 L27.4300015,23.669369 C26.6159808,24.4632454 25.2918642,24.4629978 24.4780975,23.669369 C24.0839094,23.2848757 23.8668203,22.7735801 23.8668203,22.2297172 C23.8668203,21.6858542 24.0839094,21.1745587 24.4782244,20.7900654 L31.3148808,14.121305 C31.695231,13.7504331 32.1179835,13.4241401 32.5723472,13.1508465 C33.6518259,12.4999941 34.8986283,12.1559933 36.1779305,12.1559933 C37.1545776,12.1559933 38.1379531,12.36279 39.0220517,12.7542178 C41.0332362,13.6443105 43.4236284,13.2296026 44.9699122,11.7217202 L46.4150147,10.3124069 L54.9118314,18.6002492 L51.8140587,21.6217101 Z M57.6583259,18.415742 L46.5200046,7.55136128 L51.3552517,2.83515807 L62.493573,13.6995388 L57.6583259,18.415742 Z" id="Shape" fill-rule="nonzero"></path>
                        <circle id="Oval" cx="59" cy="14" r="1"></circle>
                        <circle id="Oval" cx="7" cy="15" r="1"></circle>
                    </g>
                </g>
            </g>
        </g>
    </g>
</svg>