<?xml version="1.0" encoding="UTF-8"?>
<svg width="28px" height="27px" viewBox="0 0 28 27" version="1.1" xmlns="http://www.w3.org/2000/svg" xmlns:xlink="http://www.w3.org/1999/xlink">
    <!-- Generator: Sketch 52.6 (67491) - http://www.bohemiancoding.com/sketch -->
    <title>Phone</title>
    <desc>Created with Sketch.</desc>
    <g id="Page-1" stroke="none" stroke-width="1" fill="none" fill-rule="evenodd">
        <g id="Index" transform="translate(-1023.000000, -7715.000000)" fill="#ED3282">
            <g id="Footer" transform="translate(0.000000, 7516.000000)">
                <g id="Group-12" transform="translate(1023.333333, 141.000000)">
                    <g id="Phone" transform="translate(0.000000, 58.000000)">
                        <g id="old-handphone">
                            <path d="M8.47852333,8.93842563 L2.2417641,2.70073295 C3.04676535,1.8960242 3.85016621,1.08971563 4.65676787,0.283407062 C5.02966109,-0.089350669 5.63141153,-0.0957499433 6.00590516,0.272208332 L10.8647199,5.13405703 C11.2360127,5.50521494 11.2360127,6.11634564 10.8599187,6.49070319 L9.79565263,7.55298273 L8.80500496,8.54327044 C8.68337455,8.66645647 8.57294694,8.7976416 8.47852333,8.93842563 Z M13.6094061,19.0988735 C12.5883508,18.2205731 11.608906,17.2878789 10.6582683,16.3391864 C9.70923102,15.3840947 8.77939856,14.4082054 7.89917849,13.3827217 C7.17899844,12.550816 7.03816323,11.3461526 7.41425726,10.3318676 L1.01265681,3.93099345 C-0.477315696,5.46201984 -0.286868083,9.25838935 1.34554003,12.5940111 C2.04651528,14.0370475 2.95554255,15.3392998 3.89497741,16.5775594 C4.83281188,17.8062201 5.86186915,18.9676884 6.94534003,20.0587646 C8.0320117,21.1482411 9.18750058,22.1817239 10.4198087,23.1192176 C11.6585184,24.0615108 12.9644449,24.9638084 14.3984034,25.6629292 C17.7400388,27.2931443 21.5393887,27.472324 23.0693712,25.9812931 L16.6661703,19.5804189 C15.6515166,19.9563763 14.444815,19.817192 13.6094061,19.0988735 Z M26.724685,20.9882592 L21.8658703,16.1296102 C21.4929771,15.7616519 20.8816242,15.7616519 20.508731,16.1344096 L20.5055302,16.1344096 L19.4380633,17.1998888 L18.4538172,18.1885767 C18.3321868,18.3101629 18.1993536,18.4173508 18.0585184,18.5165395 L24.2936772,24.7526324 C25.1002789,23.944724 25.9052802,23.1416151 26.7134822,22.3369063 C27.0895762,21.9641486 27.0975782,21.361017 26.724685,20.9882592 Z" id="Shape" fill-rule="nonzero"></path>
                        </g>
                    </g>
                </g>
            </g>
        </g>
    </g>
</svg>